# xmcd
#
# Track frame offsets: 
#        150
#        3692
#        18105
#        23669
#        41813
#        55731
#        80084
#        86820
#        111102
#        134290
#        147873
#        162955
#        166809
#        186467
#        206707
#        213863
#        226017
#        247579
#        266249
#        286113
#        309041
#
# Disc length: 4429 seconds
#
# Revision: 1
# Processed by: cddbd v1.5.2PL0 Copyright (c) Steve Scherf et al.
# Submitted via: ExactAudioCopyFreeDBPlugin 1.0
#
DISCID=14114b15
DTITLE=Ian Siegal and Jimbo Mathus - Wayward Sons
DYEAR=2016
DGENRE=Blues
TTITLE0=Introduction
TTITLE1=In The Garden
TTITLE2=Jimbo's Alive
TTITLE3=Heavenly Houseboat Blues
TTITLE4=Jesse James
TTITLE5=Mary Don't You Weep
TTITLE6=The Story Of Casey Jones
TTITLE7=Casey Jones
TTITLE8=Crazy Od Soldier
TTITLE9=Tallahatchie
TTITLE10=Old Earl
TTITLE11=The Blues
TTITLE12=Ludella
TTITLE13=Stack O'Lee
TTITLE14=What They Call You?
TTITLE15=Talkin' Overseas Pirate Blues
TTITLE16=Too Much Water
TTITLE17=Goodnight Irene
TTITLE18=Milltown
TTITLE19=I'll Fly Away
TTITLE20=Dirty Old Town
EXTD=
EXTT0=
EXTT1=
EXTT2=
EXTT3=
EXTT4=
EXTT5=
EXTT6=
EXTT7=
EXTT8=
EXTT9=
EXTT10=
EXTT11=
EXTT12=
EXTT13=
EXTT14=
EXTT15=
EXTT16=
EXTT17=
EXTT18=
EXTT19=
EXTT20=
PLAYORDER=
